<?xml version="1.0" standalone="no"?>
<!DOCTYPE svg PUBLIC "-//W3C//DTD SVG 20010904//EN"
 "http://www.w3.org/TR/2001/REC-SVG-20010904/DTD/svg10.dtd">
<svg version="1.0" xmlns="http://www.w3.org/2000/svg"
 width="350.000000pt" height="350.000000pt" viewBox="0 0 350.000000 350.000000"
 preserveAspectRatio="xMidYMid meet">
<metadata>
Created by potrace 1.14, written by Peter Selinger 2001-2017
</metadata>
<g transform="translate(0.000000,350.000000) scale(0.100000,-0.100000)"
fill="#000000" stroke="none">
<path d="M0 2255 c0 -1100 2 -1245 15 -1245 9 0 15 9 15 25 0 20 5 25 25 25
20 0 25 5 25 25 0 20 5 25 25 25 20 0 25 5 25 25 0 18 5 25 20 25 15 0 20 7
20 25 0 20 5 25 25 25 18 0 25 5 25 20 0 15 7 20 25 20 20 0 25 5 25 25 0 20
5 25 25 25 20 0 25 5 25 25 0 20 5 25 25 25 20 0 25 5 25 25 0 18 5 25 20 25
15 0 20 7 20 25 0 20 5 25 25 25 18 0 25 5 25 20 0 15 7 20 25 20 20 0 25 5
25 25 0 20 5 25 25 25 20 0 25 5 25 25 0 20 5 25 25 25 20 0 25 5 25 25 0 18
5 25 20 25 15 0 20 7 20 25 0 20 5 25 25 25 18 0 25 5 25 20 0 15 7 20 25 20
20 0 25 5 25 25 0 18 5 25 20 25 14 0 20 7 20 24 0 45 45 41 51 -4 4 -25 26
-31 68 -19 11 3 18 -10 26 -46 7 -30 14 -44 17 -35 5 12 7 11 7 -4 1 -11 6
-16 15 -13 20 8 27 -3 15 -24 -10 -20 4 -28 16 -8 10 15 -15 69 -31 69 -8 0
-14 11 -14 26 0 15 -12 36 -31 53 -23 22 -29 34 -24 50 4 12 2 21 -4 21 -6 0
-12 -10 -12 -22 -1 -16 -3 -18 -6 -6 -2 9 -12 19 -21 21 -14 4 -14 6 4 12 15
5 20 13 17 26 -3 10 -9 17 -13 14 -5 -3 -12 0 -16 6 -4 8 -3 9 4 5 7 -4 12 -2
12 3 0 6 -4 11 -9 11 -5 0 -14 12 -20 28 -6 15 -22 45 -36 67 -13 22 -37 64
-52 93 -17 33 -32 51 -41 47 -8 -3 -10 0 -6 6 4 6 0 16 -7 21 -12 8 -11 9 1 5
20 -5 85 -104 137 -207 9 -19 20 -37 23 -40 6 -4 37 -58 90 -152 22 -40 74
-131 189 -331 56 -97 99 -182 96 -187 -3 -5 -1 -18 5 -27 9 -16 10 -15 5 5
-11 40 3 23 45 -54 46 -82 47 -73 -8 -133 -7 -7 -20 -24 -28 -37 -9 -13 -22
-20 -30 -17 -8 3 -14 0 -14 -7 0 -6 5 -8 10 -5 14 8 13 5 -9 -41 -46 -95 -61
-161 -61 -267 0 -183 52 -310 179 -437 41 -41 74 -79 73 -83 -1 -5 2 -6 8 -2
14 9 52 -14 44 -27 -4 -7 -3 -8 5 -4 6 4 42 -5 79 -20 89 -36 275 -46 367 -19
210 60 377 229 429 431 20 78 20 219 1 303 -9 36 -31 94 -50 129 -18 35 -31
71 -28 80 4 13 3 14 -5 4 -7 -10 -19 -1 -51 37 -39 47 -42 56 -17 52 5 -1 6 5
2 14 -6 16 37 99 195 382 38 68 69 125 69 128 0 2 13 26 29 53 39 67 76 132
129 232 24 47 63 116 84 153 40 68 40 69 81 66 56 -2 67 -1 67 10 0 12 -298
12 -306 0 -3 -5 2 -9 10 -9 9 0 16 -2 16 -3 0 -13 -159 -286 -162 -280 -3 4
-3 2 -1 -6 2 -7 -5 -27 -16 -45 -10 -17 -35 -62 -56 -101 -21 -38 -52 -95 -68
-125 -17 -30 -66 -120 -110 -200 -44 -80 -85 -155 -91 -167 -6 -13 -15 -23
-19 -23 -5 0 -5 5 -1 12 4 6 3 8 -4 4 -6 -3 -41 6 -79 21 -63 26 -78 28 -208
28 -131 0 -144 -2 -205 -28 -36 -16 -71 -31 -79 -34 -9 -4 -12 -2 -7 5 4 7 1
12 -6 12 -7 0 -22 17 -33 38 -11 20 -34 62 -52 92 -34 57 -41 76 -22 64 8 -5
8 -1 0 13 -6 11 -7 24 -3 28 4 5 2 5 -5 1 -7 -4 -10 -13 -6 -21 9 -24 -7 -17
-17 8 -5 12 -21 40 -34 62 -14 22 -33 56 -44 75 -10 19 -47 83 -81 142 -64
112 -67 118 -51 118 6 0 10 -7 10 -15 0 -8 5 -15 10 -15 15 0 23 26 16 54 -5
19 -11 23 -28 18 -12 -3 -17 -7 -10 -10 16 -5 15 -19 -2 -25 -10 -4 -25 12
-45 48 -33 58 -37 70 -21 60 6 -4 10 12 10 39 0 42 2 46 25 46 20 0 25 5 25
25 0 18 5 25 20 25 15 0 20 7 20 25 0 20 5 25 25 25 20 0 25 5 25 25 0 20 5
25 25 25 16 0 25 6 25 16 0 17 25 46 32 38 3 -2 13 5 23 16 10 11 24 20 32 20
7 0 13 5 13 10 0 6 -4 10 -10 10 -5 0 -10 4 -10 9 0 15 40 25 86 22 39 -2 41
-1 37 23 -5 22 -8 24 -30 15 -34 -13 -42 -3 -10 12 14 6 28 20 30 30 3 11 14
19 26 19 23 0 25 7 11 65 -5 22 -6 43 -2 47 4 4 8 -7 9 -24 4 -49 53 -70 53
-23 0 18 5 25 20 25 15 0 20 7 20 25 0 20 5 25 25 25 20 0 25 5 25 25 0 20 5
25 25 25 18 0 25 5 25 20 0 15 7 20 25 20 21 0 25 5 25 31 l0 30 -95 -3 c-52
-2 -95 0 -95 5 0 4 86 7 190 7 134 0 190 -3 190 -11 0 -8 20 -10 59 -7 46 3
58 1 54 -9 -3 -7 -9 -13 -13 -13 -10 0 -22 -104 -14 -124 13 -33 24 -14 23 39
-2 53 4 75 17 63 3 -4 6 -40 7 -82 2 -85 12 -99 23 -31 4 32 2 50 -7 62 -11
13 -11 17 -1 21 9 3 10 7 2 17 -6 7 -12 27 -13 44 -2 31 -37 56 -45 32 -2 -6
-15 -11 -28 -11 -14 0 -22 4 -19 10 4 6 -83 11 -242 13 l-248 2 296 3 296 2 6
73 c3 39 1 74 -4 75 -5 2 -9 8 -9 13 0 6 5 7 10 4 6 -3 10 -3 11 2 0 4 2 34 3
66 2 57 16 80 40 71 6 -2 21 14 33 36 12 22 17 37 11 34 -15 -10 8 30 26 46 9
7 16 9 16 6 0 -14 30 23 40 48 5 14 15 26 21 26 8 0 8 -4 -1 -15 -7 -8 -10
-15 -6 -15 9 0 46 39 45 47 0 4 5 9 12 12 7 2 9 -1 4 -8 -5 -9 -1 -9 14 0 14
10 17 15 8 21 -7 4 -7 8 -2 8 6 0 22 11 37 25 15 14 30 21 33 16 3 -6 -3 -14
-12 -20 -31 -18 -4 -12 39 9 23 11 48 20 55 20 7 0 13 5 13 10 0 6 24 10 53
10 28 0 59 5 67 10 10 6 -6 9 -50 8 -36 -1 -71 -6 -78 -11 -7 -6 -30 -12 -50
-14 -35 -4 -36 -3 -17 11 11 8 30 16 43 18 16 2 19 7 13 17 -8 12 -12 12 -25
2 -13 -11 -16 -11 -16 3 0 10 9 16 25 16 18 0 25 5 25 20 0 20 -7 20 -1240 20
l-1240 0 0 -1245z m2323 1178 c-7 -2 -21 -2 -30 0 -10 3 -4 5 12 5 17 0 24 -2
18 -5z m37 -37 c0 -3 -4 -8 -10 -11 -5 -3 -10 -1 -10 4 0 6 5 11 10 11 6 0 10
-2 10 -4z m-40 -11 c0 -2 -9 -9 -20 -15 -16 -9 -20 -8 -20 5 0 8 9 15 20 15
11 0 20 -2 20 -5z m-50 -25 c0 -5 -4 -10 -10 -10 -5 0 -10 5 -10 10 0 6 5 10
10 10 6 0 10 -4 10 -10z m-1089 -47 c13 -17 13 -17 -6 -3 -11 8 -22 16 -24 17
-2 2 0 3 6 3 6 0 17 -8 24 -17z m1089 3 c0 -7 -9 -16 -20 -19 -17 -4 -18 -2
-9 14 11 22 29 25 29 5z m-67 -16 c-3 -11 -7 -20 -8 -20 -1 0 -5 9 -8 20 -3
12 0 20 8 20 8 0 11 -8 8 -20z m-973 -15 c11 -13 10 -14 -4 -9 -9 3 -16 10
-16 15 0 13 6 11 20 -6z m980 -41 c-10 -18 -16 -21 -27 -13 -11 10 -9 15 9 33
27 25 36 14 18 -20z m-940 6 c0 -5 -2 -10 -4 -10 -3 0 -8 5 -11 10 -3 6 -1 10
4 10 6 0 11 -4 11 -10z m-830 -4 c0 -2 -8 -10 -17 -17 -16 -13 -17 -12 -4 4
13 16 21 21 21 13z m543 -42 c107 -35 207 -127 259 -239 19 -42 22 -67 23
-160 0 -103 -2 -114 -32 -178 -127 -267 -473 -328 -681 -120 -145 144 -164
382 -43 543 113 151 297 210 474 154z m1087 -4 c0 -11 -4 -20 -10 -20 -5 0
-10 9 -10 20 0 11 5 20 10 20 6 0 10 -9 10 -20z m52 -12 c-8 -8 -9 -4 -5 13 4
13 8 18 11 10 2 -7 -1 -18 -6 -23z m-1732 8 c0 -2 -8 -10 -17 -17 -16 -13 -17
-12 -4 4 13 16 21 21 21 13z m963 -42 c36 -52 60 -95 54 -100 -3 -3 -18 19
-35 48 -16 29 -40 64 -53 77 -12 13 -16 22 -8 19 8 -2 26 -22 42 -44z m67 26
c0 -5 -5 -10 -11 -10 -5 0 -7 5 -4 10 3 6 8 10 11 10 2 0 4 -4 4 -10z m705
-50 c3 -6 -1 -7 -9 -4 -18 7 -21 14 -7 14 6 0 13 -4 16 -10z m-107 -125 c7
-14 12 -37 12 -50 l0 -25 -272 2 -273 3 233 2 c224 3 232 4 232 23 0 13 7 20
20 20 13 0 20 -7 20 -20 0 -11 4 -20 9 -20 16 0 18 24 4 58 -16 38 -2 44 15 7z
m-573 -35 c3 -5 1 -10 -4 -10 -6 0 -11 5 -11 10 0 6 2 10 4 10 3 0 8 -4 11
-10z m-1198 -117 c-3 -10 -5 -4 -5 12 0 17 2 24 5 18 2 -7 2 -21 0 -30z m0
-150 c-3 -10 -5 -4 -5 12 0 17 2 24 5 18 2 -7 2 -21 0 -30z m1210 0 c-3 -10
-5 -4 -5 12 0 17 2 24 5 18 2 -7 2 -21 0 -30z m43 -24 c0 -5 -7 -9 -15 -9 -15
0 -20 12 -9 23 8 8 24 -1 24 -14z m-69 -89 c-31 -90 -117 -220 -145 -220 -5 0
4 15 20 33 61 65 131 203 135 264 1 17 2 17 6 0 2 -9 -5 -44 -16 -77z m-1159
25 c3 -13 1 -22 -3 -19 -9 5 -13 44 -5 44 2 0 6 -11 8 -25z m28 -70 c0 -5 -5
-3 -10 5 -5 8 -10 20 -10 25 0 6 5 3 10 -5 5 -8 10 -19 10 -25z m24 -52 c9
-18 14 -33 12 -33 -6 0 -36 55 -36 66 0 11 5 3 24 -33z m81 -103 c10 -11 13
-20 7 -20 -6 0 -16 9 -22 20 -6 11 -9 20 -7 20 2 0 12 -9 22 -20z m35 -40 c0
-5 -2 -10 -4 -10 -3 0 -8 5 -11 10 -3 6 -1 10 4 10 6 0 11 -4 11 -10z m805
-25 c-22 -19 -48 -38 -58 -41 -10 -3 -16 -12 -14 -19 3 -7 0 -12 -6 -12 -31 1
-48 -4 -43 -11 3 -5 0 -9 -7 -9 -7 0 -25 -4 -42 -8 -16 -3 2 10 42 30 40 21
89 52 110 71 21 18 43 33 48 33 6 0 -8 -15 -30 -34z m-739 -27 c12 -11 57 -34
100 -53 44 -19 75 -35 71 -35 -23 0 -102 25 -116 37 -9 8 -37 28 -63 45 -27
16 -48 35 -48 40 0 10 16 1 56 -34z m489 -98 c-11 -5 -31 -8 -45 -8 -23 0 -22
1 5 8 42 11 65 11 40 0z m-75 -20 c0 -11 4 -20 10 -20 5 0 12 -11 16 -25 3
-14 10 -23 15 -20 9 6 31 -30 23 -38 -4 -3 4 -20 16 -37 12 -17 20 -33 17 -36
-5 -5 -100 147 -113 179 -3 10 -1 17 5 17 6 0 11 -9 11 -20z m951 -1080 c120
-37 211 -118 266 -236 25 -53 28 -70 28 -164 0 -97 -2 -110 -32 -172 -36 -76
-105 -156 -167 -192 -111 -65 -279 -75 -387 -23 -67 32 -138 93 -179 151 -79
116 -92 282 -32 410 89 191 305 288 503 226z"/>
<path d="M815 3146 c-18 -13 -18 -20 -5 -143 7 -71 10 -136 8 -144 -7 -17 -48
72 -72 153 -17 59 -41 83 -70 72 -25 -10 -19 -61 19 -184 53 -170 46 -220 -20
-125 -43 62 -79 80 -102 49 -7 -10 -11 -23 -9 -29 3 -5 16 -37 29 -70 31 -73
90 -143 168 -196 32 -21 62 -46 67 -55 8 -14 24 -15 120 -9 l111 8 11 51 c6
28 14 87 16 131 3 44 17 138 31 208 25 118 25 129 10 144 -24 25 -42 4 -72
-88 -15 -43 -29 -79 -32 -79 -3 0 -3 56 -1 125 6 136 -1 163 -40 151 -23 -8
-27 -22 -37 -141 -14 -154 -26 -146 -51 34 -20 143 -35 169 -79 137z"/>
<path d="M1676 975 c-16 -8 -46 -18 -68 -21 -25 -4 -46 -16 -59 -33 -18 -23
-20 -35 -15 -93 6 -62 5 -66 -13 -61 -24 6 -51 -41 -51 -88 0 -37 39 -78 158
-166 41 -31 77 -63 79 -73 4 -15 14 -15 141 6 75 13 141 25 147 28 6 2 17 45
24 96 12 81 12 104 -3 193 -9 55 -23 111 -31 123 -8 13 -34 29 -57 35 -24 7
-52 21 -64 31 -23 20 -46 23 -75 7 -15 -8 -25 -6 -46 10 -31 25 -30 25 -67 6z"/>
<path d="M2715 3440 c3 -5 8 -10 11 -10 2 0 4 5 4 10 0 6 -5 10 -11 10 -5 0
-7 -4 -4 -10z"/>
<path d="M2856 3434 c-3 -8 -14 -14 -23 -12 -10 1 -24 -1 -30 -5 -7 -4 -22 -3
-32 3 -15 8 -29 7 -53 -5 l-33 -15 38 3 c20 2 37 -1 37 -6 0 -5 10 -7 23 -6
12 2 29 -1 37 -6 13 -7 13 -6 2 8 -12 14 -9 15 32 12 26 -3 58 -12 72 -21 19
-13 28 -14 37 -5 8 8 8 14 -2 24 -10 10 -11 9 -6 -5 9 -24 -7 -23 -22 1 -10
15 -10 21 0 25 7 4 -8 4 -32 1 -39 -5 -43 -4 -31 10 7 8 8 15 2 15 -5 0 -13
-7 -16 -16z"/>
<path d="M2640 3410 c-12 -8 -10 -10 8 -10 13 0 20 4 17 10 -7 12 -6 12 -25 0z"/>
<path d="M3006 3406 c8 -20 20 -23 87 -18 40 3 57 8 57 18 0 11 -17 14 -75 14
-60 0 -73 -3 -69 -14z"/>
<path d="M2980 3390 c0 -5 5 -10 10 -10 6 0 10 5 10 10 0 6 -4 10 -10 10 -5 0
-10 -4 -10 -10z"/>
<path d="M2846 3382 c-6 -10 63 -37 83 -33 7 1 10 -2 7 -7 -3 -6 1 -12 9 -16
8 -3 15 0 15 6 0 6 10 -1 21 -16 12 -15 24 -25 27 -22 3 3 -3 15 -13 26 -9 10
-15 26 -12 35 4 8 2 15 -2 15 -5 0 -11 -5 -13 -12 -3 -8 -18 -6 -51 10 -51 24
-63 26 -71 14z"/>
<path d="M3013 3356 c6 -14 4 -17 -10 -12 -14 6 -15 4 -6 -4 7 -8 17 -9 28 -3
15 9 15 11 -1 24 -16 13 -17 12 -11 -5z"/>
<path d="M3036 3322 c-3 -3 -6 -10 -6 -16 0 -6 4 -5 9 3 11 17 32 5 24 -15 -3
-9 -12 -12 -24 -9 -11 4 -19 2 -19 -5 0 -6 13 -13 29 -16 19 -4 33 -16 42 -37
19 -41 44 -50 37 -13 -4 20 -2 26 8 22 16 -6 28 29 22 65 -3 22 -8 24 -60 25
-31 1 -59 -1 -62 -4z m92 -42 c-15 -23 -34 -26 -41 -6 -7 19 1 26 30 26 21 0
22 -2 11 -20z"/>
<path d="M3136 3182 c-4 -7 -1 -15 8 -18 9 -3 13 -10 10 -15 -3 -5 0 -9 5 -9
6 0 10 -3 10 -7 -3 -18 2 -31 20 -52 11 -13 22 -28 24 -34 3 -7 12 -3 25 11
17 20 19 28 10 53 -13 37 -29 28 -21 -11 7 -35 -12 -41 -21 -7 -3 13 -13 33
-23 44 -10 12 -23 29 -29 39 -7 13 -13 14 -18 6z"/>
<path d="M2653 2975 c-108 -151 -143 -188 -143 -152 0 8 16 36 35 63 37 52 34
60 -20 50 -71 -14 -127 -93 -161 -230 l-17 -68 91 -91 91 -91 61 17 c82 23
144 56 214 112 42 35 56 53 54 69 -2 17 -10 21 -43 21 -43 0 -49 15 -17 44 32
30 42 48 36 65 -8 22 -36 20 -68 -5 -23 -18 -27 -19 -32 -4 -4 9 0 22 7 29
175 156 210 191 207 210 -6 43 -38 28 -153 -74 -77 -69 -120 -100 -131 -96 -9
3 -12 11 -8 18 4 7 41 64 81 126 75 116 88 152 54 152 -14 0 -55 -50 -138
-165z"/>
<path d="M2081 3047 c-7 -14 -11 -31 -8 -39 3 -8 9 -2 16 16 15 38 9 55 -8 23z"/>
<path d="M3223 3010 c4 -14 7 -31 7 -37 0 -7 5 -13 10 -13 16 0 11 46 -7 61
-15 13 -16 11 -10 -11z"/>
<path d="M3261 2936 c-7 -8 -8 -17 -3 -20 6 -3 12 3 15 14 6 24 4 25 -12 6z"/>
<path d="M3290 2859 c0 -18 2 -19 15 -9 15 12 12 30 -6 30 -5 0 -9 -10 -9 -21z"/>
<path d="M3265 2800 c0 -26 3 -46 8 -43 4 2 7 22 7 43 0 21 -3 41 -7 43 -5 3
-8 -17 -8 -43z"/>
<path d="M3310 2790 c0 -27 5 -50 10 -50 6 0 10 23 10 50 0 28 -4 50 -10 50
-5 0 -10 -22 -10 -50z"/>
<path d="M1950 2625 c0 -14 5 -25 10 -25 6 0 10 11 10 25 0 14 -4 25 -10 25
-5 0 -10 -11 -10 -25z"/>
<path d="M3235 2620 c-3 -5 -4 -10 -1 -10 3 0 -1 -12 -9 -27 -8 -15 -12 -29
-10 -32 9 -8 34 33 35 57 0 24 -5 28 -15 12z"/>
<path d="M2070 2565 c0 -8 7 -15 16 -15 14 0 14 3 4 15 -7 8 -14 15 -16 15 -2
0 -4 -7 -4 -15z"/>
<path d="M1990 2561 c0 -6 5 -13 10 -16 6 -3 10 1 10 9 0 9 -4 16 -10 16 -5 0
-10 -4 -10 -9z"/>
<path d="M3210 2530 c0 -5 5 -10 10 -10 6 0 10 -7 10 -16 0 -8 4 -12 10 -9 6
4 5 13 -3 25 -13 21 -27 26 -27 10z"/>
<path d="M2087 2503 c3 -10 14 -26 25 -36 10 -10 18 -26 18 -35 0 -10 6 -24
13 -31 10 -10 8 -12 -8 -9 -13 2 -21 -4 -23 -17 -3 -11 -9 -23 -15 -27 -6 -4
8 -4 31 -1 38 5 42 4 42 -16 0 -27 22 -36 49 -21 27 14 24 26 -19 69 -19 20
-41 48 -47 64 -7 15 -17 27 -23 27 -5 0 -10 9 -10 19 0 10 -7 22 -16 25 -23 9
-24 8 -17 -11z m108 -136 c13 -10 15 -16 6 -22 -8 -4 -21 1 -32 14 -23 24 -5
30 26 8z"/>
<path d="M3180 2494 c0 -15 22 -44 30 -39 6 4 5 14 -3 25 -11 19 -27 27 -27
14z"/>
<path d="M2052 2435 c0 -16 2 -22 5 -12 2 9 2 23 0 30 -3 6 -5 -1 -5 -18z"/>
<path d="M2082 2408 c1 -29 3 -45 6 -35 2 9 8 17 13 17 15 0 6 63 -8 68 -9 2
-12 -11 -11 -50z"/>
<path d="M3132 2400 c11 -17 10 -22 -2 -30 -9 -6 -10 -10 -3 -10 15 0 32 31
26 48 -3 6 -11 12 -19 12 -12 0 -12 -4 -2 -20z"/>
<path d="M3080 2360 c0 -5 5 -10 10 -10 6 0 10 5 10 10 0 6 -4 10 -10 10 -5 0
-10 -4 -10 -10z"/>
<path d="M2132 2331 c-11 -7 -11 -9 2 -14 10 -4 16 -1 16 8 0 17 -1 17 -18 6z"/>
<path d="M3032 2318 c-7 -9 -5 -17 6 -28 14 -13 15 -12 10 2 -4 8 -1 21 5 27
8 8 8 11 0 11 -6 0 -15 -6 -21 -12z"/>
<path d="M2257 2311 c-16 -6 -15 -9 10 -21 15 -8 33 -21 39 -29 6 -8 16 -11
22 -7 18 11 14 24 -8 31 -11 3 -26 12 -33 19 -7 7 -21 10 -30 7z"/>
<path d="M2971 2278 c-20 -13 -29 -24 -21 -26 7 -3 15 0 19 5 3 5 14 12 24 16
9 3 17 11 17 17 0 13 1 13 -39 -12z"/>
<path d="M1305 2280 c-3 -5 1 -10 10 -10 9 0 13 5 10 10 -3 6 -8 10 -10 10 -2
0 -7 -4 -10 -10z"/>
<path d="M2170 2281 c0 -8 41 -23 47 -17 2 1 -8 8 -22 14 -14 6 -25 8 -25 3z"/>
<path d="M2230 2270 c0 -5 5 -10 10 -10 6 0 10 5 10 10 0 6 -4 10 -10 10 -5 0
-10 -4 -10 -10z"/>
<path d="M2356 2235 c4 -10 13 -13 24 -10 26 8 34 -12 10 -25 -33 -18 -23 -29
15 -17 21 6 31 13 24 18 -7 4 -8 9 -1 13 6 3 13 2 17 -4 4 -6 11 -7 18 -3 6 4
-11 14 -39 24 -62 22 -75 23 -68 4z"/>
<path d="M2870 2220 c0 -10 79 -35 86 -27 3 2 -2 10 -11 17 -19 15 -75 23 -75
10z"/>
<path d="M2450 2170 c0 -13 40 -13 60 0 11 7 5 10 -22 10 -21 0 -38 -4 -38
-10z"/>
<path d="M2653 2005 c-6 -7 -8 -18 -3 -26 7 -11 10 -10 15 3 10 24 2 38 -12
23z"/>
<path d="M1045 1966 c3 -6 8 -19 11 -28 8 -21 24 -24 24 -4 0 8 3 21 6 29 4
10 -2 15 -21 15 -16 0 -24 -5 -20 -12z"/>
<path d="M1110 1940 c-13 -8 -12 -10 3 -10 9 0 17 5 17 10 0 12 -1 12 -20 0z"/>
<path d="M2606 1923 c-12 -12 -6 -43 9 -43 8 0 15 9 15 19 0 21 -13 34 -24 24z"/>
<path d="M910 1840 c0 -5 5 -10 11 -10 5 0 7 5 4 10 -3 6 -8 10 -11 10 -2 0
-4 -4 -4 -10z"/>
<path d="M1134 1832 c-8 -5 5 -35 37 -91 61 -106 65 -110 61 -58 -4 52 -28
107 -47 108 -8 1 -21 2 -27 3 -7 1 -13 11 -12 24 0 12 0 22 0 22 -1 0 -6 -4
-12 -8z"/>
<path d="M2256 1681 c-12 -5 -15 -10 -9 -14 6 -4 16 0 23 8 14 17 13 17 -14 6z"/>
<path d="M1261 1636 c-18 -21 2 -72 31 -79 14 -4 19 -11 15 -21 -9 -23 2 -46
19 -39 9 3 12 16 9 36 -2 18 -4 40 -4 50 -1 10 -9 17 -20 17 -12 0 -23 10 -28
26 -8 23 -10 25 -22 10z m19 -31 c0 -8 -2 -15 -4 -15 -2 0 -6 7 -10 15 -3 8
-1 15 4 15 6 0 10 -7 10 -15z"/>
<path d="M1045 1600 c19 -22 7 -28 -14 -7 -10 10 -11 8 -5 -8 4 -11 15 -27 23
-35 9 -8 15 -25 13 -37 -2 -17 3 -23 27 -28 28 -6 36 -15 32 -37 0 -5 4 -8 9
-8 6 0 8 -10 4 -24 -8 -35 4 -66 26 -66 27 0 34 -17 16 -36 -13 -12 -16 -13
-16 -1 0 7 -7 14 -15 14 -9 0 -15 -7 -13 -16 4 -22 46 -27 54 -6 5 13 9 13 22
3 19 -16 18 -13 -43 99 -33 62 -55 91 -64 88 -9 -4 -11 0 -7 10 3 8 1 15 -4
15 -5 0 -7 7 -4 15 4 8 1 15 -5 15 -6 0 -11 8 -11 18 -1 19 -23 52 -35 52 -5
0 0 -9 10 -20z m122 -232 c-3 -8 -6 -5 -6 6 -1 11 2 17 5 13 3 -3 4 -12 1 -19z"/>
<path d="M1021 1514 c0 -11 3 -14 6 -6 3 7 2 16 -1 19 -3 4 -6 -2 -5 -13z"/>
<path d="M2143 1492 c-7 -4 -14 -17 -16 -27 -1 -11 -6 -26 -11 -34 -6 -9 -5
-12 5 -9 8 3 14 11 14 19 0 8 6 19 14 25 17 13 11 37 -6 26z"/>
<path d="M1371 1393 c7 -10 15 -20 16 -22 2 -2 3 3 3 11 0 9 -7 19 -16 22 -15
6 -15 4 -3 -11z"/>
<path d="M2090 1402 c0 -5 7 -9 15 -9 8 0 12 4 9 9 -3 4 -9 8 -15 8 -5 0 -9
-4 -9 -8z"/>
<path d="M1407 1364 c-8 -14 3 -54 14 -54 11 0 11 17 0 44 -4 11 -10 15 -14
10z"/>
<path d="M2272 1315 c-7 -14 -12 -31 -12 -38 1 -7 7 3 16 22 17 39 13 54 -4
16z"/>
<path d="M1463 1298 c7 -21 -3 -23 -22 -5 -11 10 -13 9 -9 -2 4 -14 57 -35 66
-26 2 2 -6 14 -18 27 -17 17 -21 19 -17 6z"/>
<path d="M1546 1299 c4 -8 -1 -9 -17 -4 -18 5 -21 4 -13 -4 7 -7 22 -9 38 -5
31 7 35 24 5 24 -12 0 -17 -4 -13 -11z"/>
<path d="M1930 1301 c0 -5 7 -12 16 -15 22 -9 26 -8 18 5 -4 7 0 9 14 5 11 -4
23 -2 27 4 4 6 -9 10 -34 10 -23 0 -41 -4 -41 -9z"/>
<path d="M2010 1280 c-24 -19 -24 -20 -4 -20 12 0 25 7 28 16 3 8 10 12 16 9
5 -3 10 -1 10 4 0 17 -22 13 -50 -9z"/>
<path d="M1230 1233 c0 -5 9 -19 20 -33 11 -14 20 -31 20 -37 0 -15 20 -18 20
-3 0 21 -2 25 -12 22 -5 -1 -8 3 -6 10 3 7 -4 21 -15 31 -22 19 -27 21 -27 10z"/>
<path d="M1300 1152 c0 -10 -38 -28 -52 -24 -4 1 -5 -4 -2 -12 7 -18 -16 -32
-26 -17 -4 7 -7 -1 -8 -18 0 -25 4 -31 19 -31 11 0 18 4 15 9 -10 16 5 41 23
39 9 -2 16 4 16 12 0 8 7 20 15 27 8 6 12 15 7 19 -4 4 -7 2 -7 -4z"/>
<path d="M2210 1110 c0 -5 7 -10 16 -10 8 0 12 5 9 10 -3 6 -10 10 -16 10 -5
0 -9 -4 -9 -10z"/>
<path d="M2276 1067 c3 -10 9 -15 12 -12 3 3 0 11 -7 18 -10 9 -11 8 -5 -6z"/>
<path d="M1124 1016 c-7 -17 12 -56 27 -56 6 0 8 7 5 16 -3 9 -6 24 -6 35 0
22 -18 26 -26 5z"/>
<path d="M1163 1018 c15 -40 17 -57 7 -63 -5 -3 -10 -16 -10 -28 0 -18 -2 -19
-10 -7 -8 12 -10 11 -10 -7 0 -12 -5 -23 -11 -25 -6 -2 -9 -13 -7 -23 3 -15
12 -6 38 40 19 33 35 67 34 75 -3 44 -5 50 -20 50 -9 0 -14 -6 -11 -12z"/>
<path d="M2300 980 c0 -5 5 -10 11 -10 5 0 7 5 4 10 -3 6 -8 10 -11 10 -2 0
-4 -4 -4 -10z"/>
<path d="M2320 943 c0 -4 5 -15 10 -23 8 -13 10 -13 10 2 0 9 -4 20 -10 23 -5
3 -10 3 -10 -2z"/>
<path d="M2367 879 c4 -13 8 -18 11 -10 2 7 -1 18 -6 23 -8 8 -9 4 -5 -13z"/>
<path d="M1102 800 c0 -14 2 -19 5 -12 2 6 2 18 0 25 -3 6 -5 1 -5 -13z"/>
<path d="M1131 744 c0 -11 3 -14 6 -6 3 7 2 16 -1 19 -3 4 -6 -2 -5 -13z"/>
<path d="M2361 594 c0 -11 3 -14 6 -6 3 7 2 16 -1 19 -3 4 -6 -2 -5 -13z"/>
<path d="M1130 560 c0 -5 5 -10 11 -10 5 0 7 5 4 10 -3 6 -8 10 -11 10 -2 0
-4 -4 -4 -10z"/>
<path d="M2348 493 c5 -21 7 -23 10 -9 2 10 0 22 -6 28 -6 6 -7 0 -4 -19z"/>
<path d="M1130 493 c0 -12 5 -25 11 -28 16 -11 17 -2 2 25 -12 24 -13 24 -13
3z"/>
<path d="M1177 436 c-5 -13 -1 -26 14 -43 25 -26 40 -22 17 4 -9 10 -18 27
-20 38 -3 19 -4 19 -11 1z"/>
<path d="M1130 401 c0 -12 5 -21 10 -21 6 0 10 6 10 14 0 8 -4 18 -10 21 -5 3
-10 -3 -10 -14z"/>
<path d="M1160 360 c0 -5 5 -10 10 -10 6 0 10 5 10 10 0 6 -4 10 -10 10 -5 0
-10 -4 -10 -10z"/>
<path d="M1231 304 c0 -11 3 -14 6 -6 3 7 2 16 -1 19 -3 4 -6 -2 -5 -13z"/>
<path d="M2226 303 c-6 -14 -5 -15 5 -6 7 7 10 15 7 18 -3 3 -9 -2 -12 -12z"/>
<path d="M1252 289 c-7 -10 -8 -19 -3 -19 13 0 33 28 23 33 -4 3 -13 -3 -20
-14z"/>
<path d="M1275 270 c-3 -6 1 -7 9 -4 18 7 21 14 7 14 -6 0 -13 -4 -16 -10z"/>
<path d="M2200 260 c8 -5 20 -10 25 -10 6 0 3 5 -5 10 -8 5 -19 10 -25 10 -5
0 -3 -5 5 -10z"/>
<path d="M1315 240 c3 -5 11 -10 16 -10 6 0 7 5 4 10 -3 6 -11 10 -16 10 -6 0
-7 -4 -4 -10z"/>
<path d="M2150 203 c0 -12 5 -25 10 -28 13 -8 13 15 0 35 -8 12 -10 11 -10 -7z"/>
<path d="M2065 170 c-3 -6 1 -7 9 -4 18 7 21 14 7 14 -6 0 -13 -4 -16 -10z"/>
<path d="M1350 166 c0 -2 7 -6 15 -10 8 -3 15 -1 15 4 0 6 -7 10 -15 10 -8 0
-15 -2 -15 -4z"/>
<path d="M1535 100 c-13 -6 -15 -9 -5 -9 8 0 22 4 30 9 18 12 2 12 -25 0z"/>
<path d="M1975 90 c3 -5 8 -10 11 -10 2 0 4 5 4 10 0 6 -5 10 -11 10 -5 0 -7
-4 -4 -10z"/>
</g>
</svg>
