<?xml version="1.0" standalone="no"?>
<!DOCTYPE svg PUBLIC "-//W3C//DTD SVG 20010904//EN"
 "http://www.w3.org/TR/2001/REC-SVG-20010904/DTD/svg10.dtd">
<svg version="1.0" xmlns="http://www.w3.org/2000/svg"
 width="512.000000pt" height="512.000000pt" viewBox="0 0 512.000000 512.000000"
 preserveAspectRatio="xMidYMid meet">
<metadata>
Created by potrace 1.14, written by Peter Selinger 2001-2017
</metadata>
<g transform="translate(0.000000,512.000000) scale(0.100000,-0.100000)"
fill="#000000" stroke="none">
<path d="M2378 4935 c-2 -1 -36 -6 -75 -9 -63 -6 -141 -18 -258 -41 -52 -10
-238 -65 -295 -87 -30 -11 -68 -26 -85 -32 -16 -6 -91 -41 -165 -78 -147 -72
-313 -178 -437 -279 -92 -75 -273 -253 -329 -324 -21 -27 -42 -52 -45 -55 -38
-30 -219 -321 -278 -445 -86 -181 -169 -440 -195 -605 -3 -19 -8 -48 -10 -63
-3 -16 -8 -61 -11 -100 -10 -112 -12 -116 -53 -161 -50 -54 -110 -176 -127
-258 -14 -64 -14 -205 0 -268 30 -135 144 -293 264 -366 41 -24 51 -37 71 -89
38 -100 145 -303 218 -415 249 -381 626 -701 1029 -875 133 -57 142 -61 228
-89 230 -74 438 -108 700 -111 240 -4 371 10 580 60 606 144 1110 502 1460
1035 58 89 174 314 205 397 18 51 27 62 68 85 61 34 153 128 195 198 131 216
107 506 -57 698 -39 45 -43 56 -45 107 -1 32 -3 61 -5 64 -2 3 -7 33 -10 66
-24 224 -133 553 -263 795 -41 78 -158 260 -196 306 -9 10 -39 48 -69 84 -71
88 -258 272 -349 343 -270 213 -651 397 -932 453 -10 2 -26 5 -35 8 -92 28
-330 53 -509 53 -100 1 -183 0 -185 -2z m432 -308 c8 -3 40 -8 70 -12 148 -16
411 -100 594 -190 332 -163 609 -407 818 -720 142 -213 252 -472 302 -717 13
-62 23 -114 21 -116 -1 -1 -33 4 -72 12 -126 27 -167 31 -303 30 -114 -1 -144
-4 -191 -23 -73 -28 -122 -76 -150 -148 -21 -51 -23 -75 -23 -208 0 -246 59
-467 167 -624 63 -93 185 -178 302 -212 39 -11 76 -22 83 -25 15 -4 -14 -64
-95 -198 -294 -483 -789 -834 -1344 -951 -204 -44 -481 -55 -689 -29 -660 84
-1262 497 -1571 1079 -28 53 -50 97 -48 99 2 1 30 8 62 15 134 29 279 133 356
256 23 35 41 70 41 78 0 7 4 17 9 23 8 9 47 119 56 160 2 10 11 51 19 89 23
102 31 279 17 361 -22 123 -64 189 -145 224 -61 28 -107 35 -226 35 -115 0
-178 -6 -288 -30 -40 -8 -75 -15 -77 -15 -2 0 -2 11 1 25 9 54 12 71 18 95 3
14 8 36 10 50 3 14 14 57 26 95 12 39 26 85 32 104 16 55 97 240 135 311 48
89 154 248 215 323 50 61 230 243 278 282 14 11 46 36 70 56 113 91 290 193
465 268 100 43 295 104 370 115 22 4 47 8 55 11 27 8 74 15 140 21 36 4 67 8
69 10 6 6 405 -3 421 -9z m-1878 -2012 c19 -7 20 -12 15 -109 -9 -157 -47
-309 -103 -403 -71 -121 -242 -166 -379 -98 -169 82 -216 310 -95 457 51 62
203 125 345 144 28 3 51 7 52 8 6 5 147 6 165 1z m3488 -11 c135 -21 283 -85
330 -142 123 -149 70 -384 -106 -464 -76 -35 -181 -32 -257 7 -32 16 -70 43
-84 60 -33 38 -79 138 -94 202 -6 26 -13 57 -15 68 -11 44 -14 74 -21 168 -5
79 -3 101 8 109 14 9 165 4 239 -8z"/>
<path d="M1656 3520 c-133 -23 -276 -94 -377 -188 -40 -37 -78 -81 -85 -99
-40 -95 10 -190 108 -208 53 -10 95 8 162 71 129 121 292 163 447 114 77 -23
136 -60 207 -128 71 -68 141 -80 210 -34 30 20 62 83 62 122 0 116 -214 284
-430 338 -81 20 -222 26 -304 12z"/>
<path d="M3238 3525 c-1 -2 -21 -6 -42 -9 -142 -23 -316 -120 -415 -232 -65
-74 -67 -154 -6 -217 26 -27 47 -38 80 -43 60 -8 94 7 162 72 141 134 323 170
498 96 45 -18 140 -85 152 -106 17 -28 86 -66 122 -66 81 0 151 68 151 147 0
58 -16 87 -86 153 -113 107 -211 159 -363 194 -56 12 -243 21 -253 11z"/>
<path d="M1440 2209 c-71 -29 -93 -77 -91 -202 0 -54 3 -102 5 -105 2 -4 7
-28 10 -54 10 -77 54 -217 97 -307 162 -347 476 -595 854 -676 106 -23 344
-28 447 -9 353 64 658 274 841 580 67 111 126 266 146 379 19 110 22 139 22
217 1 87 -14 125 -64 162 l-28 21 -1107 2 c-716 1 -1116 -2 -1132 -8z m2020
-306 c0 -32 -42 -168 -71 -231 -44 -93 -93 -165 -162 -239 l-62 -65 -40 38
c-46 44 -93 84 -100 84 -2 0 -26 13 -53 29 -49 28 -122 57 -217 82 -77 21
-342 18 -425 -5 -139 -38 -285 -118 -348 -190 l-30 -34 -54 57 c-64 66 -116
137 -151 206 -32 64 -74 188 -83 243 l-7 42 902 0 c838 0 901 -1 901 -17z
m-695 -617 c39 -15 85 -40 104 -55 l35 -29 -60 -17 c-199 -59 -376 -59 -571 2
-29 8 -53 20 -53 24 0 16 85 63 155 85 59 18 89 22 195 20 108 -3 134 -6 195
-30z"/>
</g>
</svg>
